<svg id="SvgjsSvg1033" width="288" height="288" xmlns="http://www.w3.org/2000/svg" version="1.1" xmlns:xlink="http://www.w3.org/1999/xlink" xmlns:svgjs="http://svgjs.com/svgjs"><defs id="SvgjsDefs1034"></defs><g id="SvgjsG1035"><svg xmlns="http://www.w3.org/2000/svg" xmlns:svgjs="http://svgjs.com/svgjs" xmlns:xlink="http://www.w3.org/1999/xlink" width="288" height="288"><svg xmlns="http://www.w3.org/2000/svg" width="288" height="288" viewBox="0 0 100 100"><path fill="#1a1a1d" d="M 20 0 C 8.9199922 0 0 8.9199922 0 20 L 0 80 C 0 91.080006 8.9199922 100 20 100 L 80 100 C 91.080006 100 100 91.080006 100 80 L 100 20 C 100 8.9199922 91.080006 0 80 0 L 20 0 z M 18.626953 21.095703 L 81.373047 21.095703 C 85.014567 21.095703 88.054688 24.137775 88.054688 27.779297 L 88.054688 72.222656 C 88.054688 75.864178 85.014567 78.904297 81.373047 78.904297 L 18.626953 78.904297 C 14.985434 78.904297 11.945312 75.864178 11.945312 72.222656 L 11.945312 27.779297 C 11.945314 24.137775 14.985434 21.095703 18.626953 21.095703 z M 22.652344 28.095703 L 50.003906 56.40625 L 77.478516 28.095703 L 22.652344 28.095703 z M 18.945312 31.455078 L 18.945312 67.894531 L 36.851562 49.988281 L 18.945312 31.455078 z M 81.054688 31.589844 L 63.050781 50.140625 L 81.054688 68.144531 L 81.054688 31.589844 z M 40.326172 53.583984 L 22.005859 71.904297 L 77.744141 71.904297 L 59.568359 53.728516 L 51.794922 61.740234 A 2.500251 2.500251 0 0 1 48.201172 61.736328 L 40.326172 53.583984 z " class="color1d1d1d svgShape colorfff"></path></svg></svg></g></svg>